<?xml version="1.0" encoding="UTF-8"?>
<svg version="1.1" xmlns="http://www.w3.org/2000/svg" width="64" height="64">
<path d="M0 0 C0.65355469 0.16177734 1.30710937 0.32355469 1.98046875 0.49023438 C8.34069846 2.11373469 14.35163682 4.22137894 20.625 6.3125 C20.625 21.4925 20.625 36.6725 20.625 52.3125 C17.325 52.3125 14.025 52.3125 10.625 52.3125 C10.39713542 49.74088542 10.16927083 47.16927083 9.94140625 44.59765625 C9.86455024 42.35090268 9.86455024 42.35090268 8.625 41.3125 C5.625 41.14583333 5.625 41.14583333 2.625 41.3125 C0.96157163 42.97592837 1.26451903 45.0950709 1.0625 47.375 C0.918125 49.004375 0.77375 50.63375 0.625 52.3125 C-2.675 52.3125 -5.975 52.3125 -9.375 52.3125 C-9.375 34.8225 -9.375 17.3325 -9.375 -0.6875 C-6.21047958 -2.26976021 -3.27487713 -0.8568347 0 0 Z M-0.375 15.3125 C-0.375 16.6325 -0.375 17.9525 -0.375 19.3125 C0.945 19.3125 2.265 19.3125 3.625 19.3125 C3.625 17.9925 3.625 16.6725 3.625 15.3125 C2.305 15.3125 0.985 15.3125 -0.375 15.3125 Z M7.625 15.3125 C7.625 16.6325 7.625 17.9525 7.625 19.3125 C8.945 19.3125 10.265 19.3125 11.625 19.3125 C11.625 17.9925 11.625 16.6725 11.625 15.3125 C10.305 15.3125 8.985 15.3125 7.625 15.3125 Z M-0.375 23.3125 C-0.375 24.6325 -0.375 25.9525 -0.375 27.3125 C0.945 27.3125 2.265 27.3125 3.625 27.3125 C3.625 25.9925 3.625 24.6725 3.625 23.3125 C2.305 23.3125 0.985 23.3125 -0.375 23.3125 Z M7.625 23.3125 C7.625 24.6325 7.625 25.9525 7.625 27.3125 C8.945 27.3125 10.265 27.3125 11.625 27.3125 C11.625 25.9925 11.625 24.6725 11.625 23.3125 C10.305 23.3125 8.985 23.3125 7.625 23.3125 Z M-0.375 31.3125 C-0.375 32.6325 -0.375 33.9525 -0.375 35.3125 C0.945 35.3125 2.265 35.3125 3.625 35.3125 C3.625 33.9925 3.625 32.6725 3.625 31.3125 C2.305 31.3125 0.985 31.3125 -0.375 31.3125 Z M7.625 31.3125 C7.625 32.6325 7.625 33.9525 7.625 35.3125 C8.945 35.3125 10.265 35.3125 11.625 35.3125 C11.625 33.9925 11.625 32.6725 11.625 31.3125 C10.305 31.3125 8.985 31.3125 7.625 31.3125 Z " fill="#C1C1C1" transform="translate(26.375,6.6875)"/>
<path d="M0 0 C1.98 0 3.96 0 6 0 C6 15.18 6 30.36 6 46 C2.7 46 -0.6 46 -4 46 C-4 45.01 -4 44.02 -4 43 C-3.01 43 -2.02 43 -1 43 C-1.00523682 41.73293213 -1.01047363 40.46586426 -1.01586914 39.16040039 C-1.03391514 34.4771393 -1.04543053 29.79388129 -1.05493164 25.1105957 C-1.05997278 23.08031702 -1.06680557 21.05004198 -1.07543945 19.01977539 C-1.08751467 16.10822653 -1.09323034 13.1967255 -1.09765625 10.28515625 C-1.10281754 9.3716188 -1.10797882 8.45808136 -1.11329651 7.51686096 C-1.11349168 5.34424573 -1.06211805 3.17172704 -1 1 C-0.67 0.67 -0.34 0.34 0 0 Z " fill="#C1C1C1" transform="translate(9,13)"/>
<path d="M0 0 C5 2 5 2 7 3 C7 12.9 7 22.8 7 33 C7.99 33 8.98 33 10 33 C10 33.99 10 34.98 10 36 C6.7 36 3.4 36 0 36 C0 24.12 0 12.24 0 0 Z " fill="#C1C1C1" transform="translate(49,23)"/>
<path d="M0 0 C1.98 0 3.96 0 6 0 C6 3.3 6 6.6 6 10 C4.02 10 2.04 10 0 10 C0 6.7 0 3.4 0 0 Z " fill="#C1C1C1" transform="translate(29,49)"/>
</svg>
