<?xml version="1.0" encoding="UTF-8"?>
<svg version="1.1" xmlns="http://www.w3.org/2000/svg" width="256" height="256">
<path d="M0 0 C0.92962555 0.27482208 1.8592511 0.54964417 2.81704712 0.83279419 C5.86471138 1.73764866 8.90652244 2.6605813 11.94824219 3.58520508 C14.07555703 4.22403914 16.20306262 4.86223834 18.33074951 5.49983215 C22.77806741 6.83582428 27.22244475 8.18110187 31.66503906 9.53271484 C37.35432579 11.26254489 43.05100315 12.96644713 48.7502327 14.66318798 C53.1408649 15.9739102 57.52688822 17.29953841 61.91170502 18.62957191 C64.01055536 19.2639883 66.11090152 19.89347804 68.21274567 20.51790428 C71.14933107 21.39248335 74.07900366 22.28727484 77.0078125 23.1875 C78.30614517 23.56729256 78.30614517 23.56729256 79.63070679 23.95475769 C84.68346685 25.53611372 87.79004686 27.19989941 91.24511719 31.41723633 C92.72674591 34.38049377 92.36772449 37.03136653 92.3653717 40.33938599 C92.36622613 41.05980005 92.36708055 41.78021412 92.36796087 42.52245891 C92.36961454 44.94850988 92.36409613 47.37449246 92.35864258 49.80053711 C92.35836066 51.53480019 92.35851854 53.2690634 92.35908508 55.00332642 C92.35937286 59.72207614 92.35347927 64.44080063 92.34651113 69.15954447 C92.34027435 74.08698303 92.33967353 79.01442212 92.33848572 83.94186401 C92.33537336 93.27745199 92.32716125 102.61302831 92.31713623 111.94861114 C92.30597213 122.5748141 92.30046389 133.20101761 92.29544079 143.82722497 C92.28497857 165.69057005 92.26663427 187.55389914 92.24511719 209.41723633 C79.70511719 209.41723633 67.16511719 209.41723633 54.24511719 209.41723633 C54.18904297 205.17299805 54.18904297 205.17299805 54.13183594 200.84301758 C54.0855953 198.095951 54.03437088 195.3490193 53.98266602 192.60205078 C53.94945757 190.69621001 53.92141294 188.79027187 53.89868164 186.88427734 C53.86506051 184.14093618 53.81274124 181.39848411 53.75683594 178.65551758 C53.75044601 177.80637283 53.74405609 176.95722809 53.73747253 176.08235168 C53.6223387 171.42647533 53.36129577 168.13123231 50.24511719 164.41723633 C45.4345975 160.9951738 38.94213311 162.08940014 33.30761719 162.10473633 C31.53741211 162.08056641 31.53741211 162.08056641 29.73144531 162.0559082 C28.59255859 162.05526367 27.45367187 162.05461914 26.28027344 162.05395508 C24.72385132 162.04948364 24.72385132 162.04948364 23.13598633 162.04492188 C19.76160178 162.47950818 17.93497632 163.35024889 15.24511719 165.41723633 C13.56334811 168.19389462 12.98754877 170.31583948 12.92626953 173.54321289 C12.90639984 174.34374084 12.88653015 175.1442688 12.86605835 175.96905518 C12.85450714 176.82336121 12.84295593 177.67766724 12.83105469 178.55786133 C12.81168854 179.44004333 12.79232239 180.32222534 12.77236938 181.23114014 C12.71268871 184.04307449 12.66623435 186.85505003 12.62011719 189.66723633 C12.58192681 191.57610814 12.54287445 193.48496292 12.50292969 195.39379883 C12.40537721 200.06818831 12.3257178 204.74240084 12.24511719 209.41723633 C-0.29488281 209.41723633 -12.83488281 209.41723633 -25.75488281 209.41723633 C-25.82256901 182.77490723 -25.87784669 156.1326476 -25.91031933 129.4902544 C-25.9257968 117.12009926 -25.94690319 104.75000127 -25.98120117 92.37988281 C-26.01107651 81.59973303 -26.03045141 70.81962464 -26.0371483 60.03943461 C-26.0410637 54.32992123 -26.05028384 48.62052627 -26.07207298 42.9110508 C-26.0924086 37.53901322 -26.0987225 32.16714306 -26.09420586 26.79507065 C-26.09503236 24.8217789 -26.10101535 22.84848166 -26.11249924 20.87522316 C-26.12739752 18.18364265 -26.12384614 15.49269649 -26.11564636 12.80110168 C-26.12438489 12.01802149 -26.13312341 11.2349413 -26.14212674 10.4281314 C-26.10496455 5.92341437 -25.64858437 2.93669178 -22.75488281 -0.58276367 C-15.95853483 -5.14459576 -7.17698005 -2.20397342 0 0 Z M8.33105469 61.50317383 C6.65486734 64.45760477 6.84909137 67.05310603 6.87011719 70.41723633 C6.86238281 71.65473633 6.85464844 72.89223633 6.84667969 74.16723633 C7.0204562 77.30663531 7.0204562 77.30663531 8.33105469 79.33129883 C11.28548563 81.00748618 13.88098688 80.81326214 17.24511719 80.79223633 C18.48261719 80.7999707 19.72011719 80.80770508 20.99511719 80.81567383 C24.13451617 80.64189732 24.13451617 80.64189732 26.15917969 79.33129883 C27.83536704 76.37686788 27.641143 73.78136663 27.62011719 70.41723633 C27.62785156 69.17973633 27.63558594 67.94223633 27.64355469 66.66723633 C27.46977818 63.52783734 27.46977818 63.52783734 26.15917969 61.50317383 C23.20474874 59.82698648 20.60924749 60.02121051 17.24511719 60.04223633 C16.00761719 60.03450195 14.77011719 60.02676758 13.49511719 60.01879883 C10.3557182 60.19257534 10.3557182 60.19257534 8.33105469 61.50317383 Z M40.33105469 61.50317383 C38.65486734 64.45760477 38.84909137 67.05310603 38.87011719 70.41723633 C38.86238281 71.65473633 38.85464844 72.89223633 38.84667969 74.16723633 C39.0204562 77.30663531 39.0204562 77.30663531 40.33105469 79.33129883 C43.28548563 81.00748618 45.88098688 80.81326214 49.24511719 80.79223633 C50.48261719 80.7999707 51.72011719 80.80770508 52.99511719 80.81567383 C56.13451617 80.64189732 56.13451617 80.64189732 58.15917969 79.33129883 C59.83536704 76.37686788 59.641143 73.78136663 59.62011719 70.41723633 C59.62785156 69.17973633 59.63558594 67.94223633 59.64355469 66.66723633 C59.46977818 63.52783734 59.46977818 63.52783734 58.15917969 61.50317383 C55.20474874 59.82698648 52.60924749 60.02121051 49.24511719 60.04223633 C48.00761719 60.03450195 46.77011719 60.02676758 45.49511719 60.01879883 C42.3557182 60.19257534 42.3557182 60.19257534 40.33105469 61.50317383 Z M8.33105469 93.50317383 C6.65486734 96.45760477 6.84909137 99.05310603 6.87011719 102.41723633 C6.86238281 103.65473633 6.85464844 104.89223633 6.84667969 106.16723633 C7.0204562 109.30663531 7.0204562 109.30663531 8.33105469 111.33129883 C11.28548563 113.00748618 13.88098688 112.81326214 17.24511719 112.79223633 C18.48261719 112.7999707 19.72011719 112.80770508 20.99511719 112.81567383 C24.13451617 112.64189732 24.13451617 112.64189732 26.15917969 111.33129883 C27.83536704 108.37686788 27.641143 105.78136663 27.62011719 102.41723633 C27.62785156 101.17973633 27.63558594 99.94223633 27.64355469 98.66723633 C27.46977818 95.52783734 27.46977818 95.52783734 26.15917969 93.50317383 C23.20474874 91.82698648 20.60924749 92.02121051 17.24511719 92.04223633 C16.00761719 92.03450195 14.77011719 92.02676758 13.49511719 92.01879883 C10.3557182 92.19257534 10.3557182 92.19257534 8.33105469 93.50317383 Z M40.33105469 93.50317383 C38.65486734 96.45760477 38.84909137 99.05310603 38.87011719 102.41723633 C38.86238281 103.65473633 38.85464844 104.89223633 38.84667969 106.16723633 C39.0204562 109.30663531 39.0204562 109.30663531 40.33105469 111.33129883 C43.28548563 113.00748618 45.88098688 112.81326214 49.24511719 112.79223633 C50.48261719 112.7999707 51.72011719 112.80770508 52.99511719 112.81567383 C56.13451617 112.64189732 56.13451617 112.64189732 58.15917969 111.33129883 C59.83536704 108.37686788 59.641143 105.78136663 59.62011719 102.41723633 C59.62785156 101.17973633 59.63558594 99.94223633 59.64355469 98.66723633 C59.46977818 95.52783734 59.46977818 95.52783734 58.15917969 93.50317383 C55.20474874 91.82698648 52.60924749 92.02121051 49.24511719 92.04223633 C48.00761719 92.03450195 46.77011719 92.02676758 45.49511719 92.01879883 C42.3557182 92.19257534 42.3557182 92.19257534 40.33105469 93.50317383 Z M8.33105469 125.50317383 C6.65486734 128.45760477 6.84909137 131.05310603 6.87011719 134.41723633 C6.86238281 135.65473633 6.85464844 136.89223633 6.84667969 138.16723633 C7.0204562 141.30663531 7.0204562 141.30663531 8.33105469 143.33129883 C11.28548563 145.00748618 13.88098688 144.81326214 17.24511719 144.79223633 C18.48261719 144.7999707 19.72011719 144.80770508 20.99511719 144.81567383 C24.13451617 144.64189732 24.13451617 144.64189732 26.15917969 143.33129883 C27.83536704 140.37686788 27.641143 137.78136663 27.62011719 134.41723633 C27.62785156 133.17973633 27.63558594 131.94223633 27.64355469 130.66723633 C27.46977818 127.52783734 27.46977818 127.52783734 26.15917969 125.50317383 C23.20474874 123.82698648 20.60924749 124.02121051 17.24511719 124.04223633 C16.00761719 124.03450195 14.77011719 124.02676758 13.49511719 124.01879883 C10.3557182 124.19257534 10.3557182 124.19257534 8.33105469 125.50317383 Z M40.33105469 125.50317383 C38.65486734 128.45760477 38.84909137 131.05310603 38.87011719 134.41723633 C38.86238281 135.65473633 38.85464844 136.89223633 38.84667969 138.16723633 C39.0204562 141.30663531 39.0204562 141.30663531 40.33105469 143.33129883 C43.28548563 145.00748618 45.88098688 144.81326214 49.24511719 144.79223633 C50.48261719 144.7999707 51.72011719 144.80770508 52.99511719 144.81567383 C56.13451617 144.64189732 56.13451617 144.64189732 58.15917969 143.33129883 C59.83536704 140.37686788 59.641143 137.78136663 59.62011719 134.41723633 C59.62785156 133.17973633 59.63558594 131.94223633 59.64355469 130.66723633 C59.46977818 127.52783734 59.46977818 127.52783734 58.15917969 125.50317383 C55.20474874 123.82698648 52.60924749 124.02121051 49.24511719 124.04223633 C48.00761719 124.03450195 46.77011719 124.02676758 45.49511719 124.01879883 C42.3557182 124.19257534 42.3557182 124.19257534 40.33105469 125.50317383 Z " fill="#5634C3" transform="translate(94.7548828125,25.582763671875)"/>
<path d="M0 0 C0 60.06 0 120.12 0 182 C-11.55 182 -23.1 182 -35 182 C-38 179 -38 179 -38.3125 175.9375 C-38 173 -38 173 -36 171 C-33.8359375 170.8046875 -33.8359375 170.8046875 -31.375 170.875 C-30.55773437 170.89304688 -29.74046875 170.91109375 -28.8984375 170.9296875 C-28.27195312 170.95289063 -27.64546875 170.97609375 -27 171 C-27.00691345 169.7313647 -27.00691345 169.7313647 -27.01396656 168.43710041 C-27.1243553 147.86448626 -27.20711255 127.29192311 -27.25906086 106.7190752 C-27.28485 96.77020957 -27.32001411 86.82154154 -27.37719727 76.87280273 C-27.42701048 68.20216052 -27.45928585 59.5316614 -27.47044247 50.86088008 C-27.47696478 46.26906572 -27.49230863 41.67766078 -27.52865028 37.08597755 C-27.56257697 32.76442467 -27.57305978 28.44344999 -27.56553841 24.12177658 C-27.56691445 22.53547588 -27.57686717 20.94915593 -27.59602737 19.36297035 C-27.62091582 17.19637358 -27.6149236 15.03195814 -27.60127258 12.86531067 C-27.60588155 11.65315289 -27.61049051 10.44099512 -27.61523914 9.19210529 C-26.82431931 5.08849871 -25.17691742 3.61947881 -22 1 C-15.4340948 -2.2829526 -7.34090518 0 0 0 Z " fill="#112294" transform="translate(59,53)"/>
<path d="M0 0 C23.5 11.75 23.5 11.75 27 17 C27.24609566 19.14952374 27.24609566 19.14952374 27.24050903 21.68864441 C27.24325836 22.65198196 27.24600769 23.61531952 27.24884033 24.60784912 C27.24164978 25.66304749 27.23445923 26.71824585 27.22705078 27.80541992 C27.22734283 28.91776505 27.22763489 30.03011017 27.22793579 31.17616272 C27.22653998 34.86101014 27.21096675 38.54565656 27.1953125 42.23046875 C27.19158327 44.78208811 27.18873587 47.3337089 27.18673706 49.8853302 C27.17987522 55.92015155 27.16410464 61.95488632 27.14403808 67.98967296 C27.12168811 74.86021829 27.11068793 81.73076707 27.10064721 88.6013397 C27.07973863 102.73426657 27.04455701 116.86712932 27 131 C27.62648437 130.97679687 28.25296875 130.95359375 28.8984375 130.9296875 C29.71570313 130.91164062 30.53296875 130.89359375 31.375 130.875 C32.18710938 130.85179687 32.99921875 130.82859375 33.8359375 130.8046875 C36 131 36 131 38 133 C38.3125 135.9375 38.3125 135.9375 38 139 C37.01 139.99 36.02 140.98 35 142 C23.45 142 11.9 142 0 142 C0 95.14 0 48.28 0 0 Z " fill="#9745EF" transform="translate(197,93)"/>
<path d="M0 0 C7.26 0 14.52 0 22 0 C22 12.54 22 25.08 22 38 C14.74 38 7.48 38 0 38 C0 25.46 0 12.92 0 0 Z " fill="#4B31BC" transform="translate(117,197)"/>
</svg>
